<svg xmlns="http://www.w3.org/2000/svg" width="20" height="16" viewBox="0 0 20 16" fill="none"><path d="M0 16V11.5989C0 10.2999 0.233683 8.93219 0.701007 7.4957C1.16833 6.05922 1.81818 4.68386 2.6506 3.36963C3.48302 2.05539 4.4615 0.932185 5.586 0L8.82804 2.4298C7.9372 3.78987 7.17782 5.21108 6.54985 6.69341C5.92189 8.17574 5.60788 9.78796 5.60788 11.5301V16H0ZM11.172 16V11.5989C11.172 10.2999 11.4056 8.93219 11.8729 7.4957C12.3403 6.05922 12.9901 4.68386 13.8226 3.36963C14.655 2.05539 15.6335 0.932185 16.758 0L20 2.4298C19.1092 3.78987 18.3498 5.21108 17.7218 6.69341C17.0938 8.17574 16.7798 9.78796 16.7798 11.5301V16H11.172Z" fill="#0061FF"></path></svg>