<svg xmlns="http://www.w3.org/2000/svg" width="126" height="32" viewBox="0 0 126 32" fill="none"><path d="M43.9395 20.3298H51.2305V18.3444H46.3476V8.93994H43.9395V20.3298Z" fill="#9CA7AB"></path><path d="M56.1706 20.4963C58.7622 20.4963 60.375 18.7222 60.375 16.0916C60.375 13.4443 58.7622 11.6758 56.1706 11.6758C53.579 11.6758 51.9662 13.4443 51.9662 16.0916C51.9662 18.7222 53.579 20.4963 56.1706 20.4963ZM56.1817 18.661C54.986 18.661 54.3742 17.5653 54.3742 16.0749C54.3742 14.5844 54.986 13.4833 56.1817 13.4833C57.3552 13.4833 57.9669 14.5844 57.9669 16.0749C57.9669 17.5653 57.3552 18.661 56.1817 18.661Z" fill="#9CA7AB"></path><path d="M65.2943 23.7108C67.7358 23.7108 69.4709 22.5984 69.4709 20.4128V11.787H67.1184V13.2219H67.0295C66.7125 12.5267 66.0173 11.6758 64.588 11.6758C62.7138 11.6758 61.1288 13.1329 61.1288 16.0416C61.1288 18.8834 62.6693 20.2071 64.5936 20.2071C65.9561 20.2071 66.718 19.523 67.0295 18.8167H67.1296V20.3795C67.1296 21.553 66.3788 22.009 65.3499 22.009C64.3043 22.009 63.776 21.553 63.5814 21.0357L61.3902 21.3305C61.6738 22.6763 62.9918 23.7108 65.2943 23.7108ZM65.3443 18.4274C64.182 18.4274 63.548 17.5042 63.548 16.0304C63.548 14.5788 64.1709 13.5612 65.3443 13.5612C66.4956 13.5612 67.1407 14.5344 67.1407 16.0304C67.1407 17.5375 66.4844 18.4274 65.3443 18.4274Z" fill="#9CA7AB"></path><path d="M74.7461 20.4963C77.3378 20.4963 78.9506 18.7222 78.9506 16.0916C78.9506 13.4443 77.3378 11.6758 74.7461 11.6758C72.1545 11.6758 70.5416 13.4443 70.5416 16.0916C70.5416 18.7222 72.1545 20.4963 74.7461 20.4963ZM74.7573 18.661C73.5615 18.661 72.9497 17.5653 72.9497 16.0749C72.9497 14.5844 73.5615 13.4833 74.7573 13.4833C75.9307 13.4833 76.5424 14.5844 76.5424 16.0749C76.5424 17.5653 75.9307 18.661 74.7573 18.661Z" fill="#9CA7AB"></path><path d="M80.0213 20.3296H82.3904V11.7872H80.0213V20.3296ZM81.2114 10.686C81.9177 10.686 82.4961 10.1466 82.4961 9.4848C82.4961 8.82855 81.9177 8.28906 81.2114 8.28906C80.5107 8.28906 79.9323 8.82855 79.9323 9.4848C79.9323 10.1466 80.5107 10.686 81.2114 10.686Z" fill="#9CA7AB"></path><path d="M83.8187 23.5328H86.1875V18.9613H86.2597C86.588 19.6732 87.3051 20.4685 88.6844 20.4685C90.6314 20.4685 92.1494 18.928 92.1494 16.0693C92.1494 13.1329 90.5642 11.6758 88.6901 11.6758C87.2608 11.6758 86.5773 12.5267 86.2597 13.2219H86.1539V11.787H83.8187V23.5328ZM86.1375 16.0582C86.1375 14.5344 86.7824 13.5612 87.9336 13.5612C89.1077 13.5612 89.7305 14.5788 89.7305 16.0582C89.7305 17.5487 89.0963 18.5831 87.9336 18.5831C86.7939 18.5831 86.1375 17.5821 86.1375 16.0582Z" fill="#9CA7AB"></path><path d="M100.367 14.2229C100.155 12.6491 98.8875 11.6758 96.7296 11.6758C94.5437 11.6758 93.1037 12.688 93.1086 14.3342C93.1037 15.6133 93.9095 16.442 95.5784 16.7757L97.0578 17.0704C97.8028 17.2206 98.1425 17.4931 98.1531 17.9213C98.1425 18.4274 97.5919 18.7889 96.7632 18.7889C95.9172 18.7889 95.356 18.4274 95.2116 17.7322L92.8813 17.8546C93.1037 19.4896 94.4937 20.4963 96.7574 20.4963C98.9704 20.4963 100.556 19.3673 100.561 17.6822C100.556 16.4476 99.749 15.7079 98.0924 15.3686L96.5458 15.0571C95.7507 14.8847 95.4561 14.6122 95.4619 14.2007C95.4561 13.6891 96.0346 13.3554 96.7681 13.3554C97.5919 13.3554 98.0809 13.8058 98.1974 14.3564L100.367 14.2229Z" fill="#9CA7AB"></path><path d="M107.061 16.6923C107.067 17.838 106.283 18.4386 105.432 18.4386C104.537 18.4386 103.958 17.8102 103.952 16.8035V11.7871H101.584V17.2262C101.589 19.2228 102.757 20.4407 104.475 20.4407C105.76 20.4407 106.683 19.7789 107.067 18.7778H107.156V20.3295H109.43V11.7871H107.061V16.6923Z" fill="#9CA7AB"></path><path d="M110.855 20.3294H113.225V15.2018C113.225 14.2563 113.826 13.6279 114.615 13.6279C115.394 13.6279 115.916 14.1618 115.916 15.0016V20.3294H118.214V15.1127C118.214 14.2285 118.72 13.6279 119.582 13.6279C120.338 13.6279 120.905 14.1006 120.905 15.0516V20.3294H123.269V14.5844C123.269 12.7324 122.168 11.6758 120.577 11.6758C119.326 11.6758 118.352 12.3154 118.002 13.2942H117.914C117.641 12.3042 116.767 11.6758 115.594 11.6758C114.443 11.6758 113.57 12.2876 113.214 13.2942H113.114V11.787H110.855V20.3294Z" fill="#9CA7AB"></path><path d="M14.4517 1.64111H21.8354L18.8716 9.92362C13.6551 10.8403 9.66526 15.8873 9.66526 21.9759C9.66526 24.7225 10.4772 27.2573 11.8474 29.2964H2.04315L11.0061 4.24877C11.5697 2.67384 12.9343 1.64111 14.4517 1.64111Z" fill="#9CA7AB"></path><path d="M21.8352 1.64111L19.7522 7.46204L19.1246 1.64111H21.8352Z" fill="black" fill-opacity="0.3"></path><path d="M26.5083 1.64111H19.1246L22.0759 9.88866C27.3962 10.7038 31.4948 15.8048 31.4948 21.9759C31.4948 24.7225 30.6828 27.2573 29.3126 29.2964H38.9168L29.9538 4.24878C29.3903 2.67384 28.0257 1.64111 26.5083 1.64111Z" fill="#9CA7AB"></path><path d="M13.1349 28.4994C11.8731 26.7025 11.1207 24.4374 11.1207 21.9759C11.1207 16.136 15.3559 11.4019 20.5802 11.4019C25.8045 11.4019 30.0397 16.136 30.0397 21.9759C30.0397 24.4374 29.2873 26.7025 28.0255 28.4994C25.9541 26.9573 23.3754 26.0428 20.5802 26.0428C17.785 26.0428 15.2063 26.9573 13.1349 28.4994Z" fill="#DEE0E3"></path></svg>