<svg xmlns="http://www.w3.org/2000/svg" width="129" height="32" viewBox="0 0 129 32" fill="none"><g clip-path="url(#clip0_4306_3516)"><path d="M20.7234 16.0211C21.7749 15.1406 22.4435 13.818 22.4435 12.3393C22.4435 10.8606 21.7749 9.53812 20.7234 8.65761C20.844 8.59925 20.9599 8.53593 21.0704 8.4673C21.7678 8.03365 22.591 7.7832 23.4727 7.7832C25.989 7.7832 28.0288 9.82309 28.0288 12.3393C28.0288 14.8556 25.989 16.8954 23.4727 16.8954C22.591 16.8954 21.7678 16.645 21.0704 16.2114C20.9599 16.1427 20.844 16.0794 20.7234 16.0211Z" fill="#9CA7AB" fill-opacity="0.8"></path><path d="M19.4581 13.057C19.9285 11.7687 19.8463 10.289 19.1069 9.00845C18.3675 7.72787 17.1272 6.91684 15.7764 6.68003C15.8516 6.56927 15.9203 6.45644 15.9816 6.34176C16.3688 5.61751 16.9565 4.98902 17.72 4.54818C19.8992 3.29004 22.6858 4.03667 23.9439 6.21583C25.202 8.395 24.4554 11.1815 22.2762 12.4396C21.5126 12.8805 20.6745 13.0752 19.8537 13.0484C19.7237 13.0441 19.5916 13.0473 19.4581 13.057Z" fill="#9CA7AB" fill-opacity="0.8"></path><path d="M16.8797 11.1219C16.6429 9.77108 15.8319 8.53074 14.5513 7.79139C13.2707 7.05204 11.7911 6.96985 10.5028 7.44017C10.5126 7.30666 10.5157 7.17456 10.5114 7.04461C10.4846 6.22378 10.6793 5.38565 11.1202 4.62208C12.3783 2.44292 15.1648 1.69629 17.344 2.95443C19.5231 4.21257 20.2698 6.99905 19.0116 9.17824C18.5708 9.94177 17.9423 10.5295 17.218 10.9167C17.1034 10.978 16.9906 11.0467 16.8797 11.1219Z" fill="#9CA7AB" fill-opacity="0.8"></path><path d="M13.6793 10.736C12.7988 9.68458 11.4763 9.01595 9.99753 9.01595C8.5188 9.01595 7.1963 9.68458 6.31581 10.736C6.25748 10.6155 6.19414 10.4996 6.12548 10.3891C5.69185 9.69166 5.44141 8.8685 5.44141 7.9868C5.44141 5.47051 7.48125 3.43066 9.99753 3.43066C12.5138 3.43066 14.5537 5.47051 14.5537 7.9868C14.5537 8.8685 14.3032 9.69166 13.8696 10.3891C13.8009 10.4996 13.7376 10.6155 13.6793 10.736Z" fill="#9CA7AB" fill-opacity="0.8"></path><path d="M10.7142 12.0012C9.42592 11.5309 7.94623 11.6131 6.66564 12.3524C5.38504 13.0918 4.57401 14.3321 4.33721 15.6829C4.22645 15.6077 4.11361 15.539 3.99893 15.4777C3.27468 15.0905 2.64619 14.5028 2.20535 13.7393C0.947201 11.5601 1.69384 8.77362 3.873 7.51547C6.05217 6.25732 8.83864 7.00396 10.0968 9.18314C10.5377 9.94668 10.7324 10.7848 10.7055 11.6056C10.7013 11.7356 10.7044 11.8677 10.7142 12.0012Z" fill="#9CA7AB" fill-opacity="0.8"></path><path d="M8.77869 14.58C7.42784 14.8168 6.18751 15.6278 5.44816 16.9084C4.70881 18.189 4.62662 19.6686 5.09695 20.9569C4.96343 20.9471 4.83131 20.944 4.70134 20.9482C3.88052 20.9751 3.04239 20.7804 2.27883 20.3396C0.0996624 19.0814 -0.646974 16.2949 0.611166 14.1157C1.86931 11.9366 4.65579 11.1899 6.83496 12.4481C7.59852 12.8889 8.1862 13.5174 8.57339 14.2416C8.63469 14.3563 8.70349 14.4692 8.77869 14.58Z" fill="#9CA7AB" fill-opacity="0.8"></path><path d="M8.39166 17.7807C7.34021 18.6612 6.67155 19.9837 6.67155 21.4624C6.67155 22.9411 7.34021 24.2636 8.39166 25.1441C8.27116 25.2024 8.15519 25.2658 8.04475 25.3345C7.34731 25.7681 6.52412 26.0185 5.64243 26.0185C3.12615 26.0185 1.0863 23.9787 1.0863 21.4624C1.0863 18.9461 3.12615 16.9062 5.64243 16.9062C6.52412 16.9062 7.34731 17.1567 8.04475 17.5904C8.15519 17.659 8.27116 17.7223 8.39166 17.7807Z" fill="#9CA7AB" fill-opacity="0.8"></path><path d="M9.65678 20.7456C9.18638 22.0339 9.26857 23.5135 10.0079 24.7941C10.7473 26.0748 11.9876 26.8857 13.3385 27.1225C13.2633 27.2334 13.1945 27.3462 13.1332 27.4609C12.746 28.1851 12.1583 28.8136 11.3948 29.2544C9.2156 30.5126 6.42912 29.7659 5.17098 27.5868C3.91284 25.4076 4.65948 22.6211 6.83864 21.363C7.60221 20.9221 8.44036 20.7274 9.26116 20.7543C9.39109 20.7585 9.52322 20.7554 9.65678 20.7456Z" fill="#9CA7AB" fill-opacity="0.8"></path><path d="M12.2352 22.6812C12.472 24.032 13.283 25.2723 14.5636 26.0116C15.8442 26.751 17.3239 26.8332 18.6122 26.3628C18.6024 26.4964 18.5993 26.6284 18.6035 26.7585C18.6304 27.5793 18.4357 28.4174 17.9948 29.1809C16.7367 31.3601 13.9502 32.1068 11.771 30.8486C9.59181 29.5905 8.8452 26.804 10.1034 24.6248C10.5442 23.8613 11.1727 23.2736 11.8969 22.8864C12.0116 22.8251 12.1244 22.7563 12.2352 22.6812Z" fill="#9CA7AB" fill-opacity="0.8"></path><path d="M15.4359 23.0684C16.3164 24.1198 17.6389 24.7884 19.1177 24.7884C20.5964 24.7884 21.9189 24.1198 22.7994 23.0684C22.8577 23.1889 22.921 23.3048 22.9897 23.4152C23.4233 24.1127 23.6738 24.9359 23.6738 25.8176C23.6738 28.3339 21.6339 30.3737 19.1177 30.3737C16.6014 30.3737 14.5615 28.3339 14.5615 25.8176C14.5615 24.9359 14.812 24.1127 15.2456 23.4152C15.3143 23.3048 15.3776 23.1889 15.4359 23.0684Z" fill="#9CA7AB" fill-opacity="0.8"></path><path d="M18.4012 21.8033C19.6894 22.2736 21.1691 22.1914 22.4497 21.4521C23.7303 20.7127 24.5413 19.4724 24.7781 18.1216C24.8888 18.1967 25.0017 18.2655 25.1164 18.3268C25.8407 18.714 26.4691 19.3017 26.91 20.0652C28.1682 22.2444 27.4215 25.0309 25.2424 26.2891C23.0632 27.5472 20.2767 26.8006 19.0185 24.6214C18.5777 23.8578 18.383 23.0197 18.4098 22.1989C18.4141 22.0689 18.411 21.9368 18.4012 21.8033Z" fill="#9CA7AB" fill-opacity="0.8"></path><path d="M23.6699 16.8915C23.669 16.8931 23.668 16.8947 23.6671 16.8963C22.9278 18.1769 21.6875 18.9879 20.3367 19.2247C20.4118 19.3355 20.4806 19.4484 20.5419 19.563C20.9291 20.2873 21.5168 20.9157 22.2803 21.3566C24.4595 22.6148 27.246 21.8681 28.5042 19.689C29.5827 17.8207 29.1879 15.5061 27.6801 14.0908C27.0177 15.6805 25.4806 16.8144 23.6699 16.8915Z" fill="#9CA7AB" fill-opacity="0.8"></path><path d="M39.7983 8.2874V21.895H36.7826V8.2874H39.7983ZM37.2607 21.895L37.3158 19.2286H45.131V21.895H37.2607ZM45.603 17.2794C45.603 16.311 45.8052 15.4651 46.2098 14.7418C46.6143 14.0062 47.1844 13.4362 47.9199 13.0316C48.6554 12.6271 49.5135 12.4248 50.4943 12.4248C51.4751 12.4248 52.327 12.6271 53.0503 13.0316C53.7859 13.4362 54.3559 14.0062 54.7604 14.7418C55.165 15.4651 55.3673 16.311 55.3673 17.2794C55.3673 18.2479 55.165 19.0938 54.7604 19.8171C54.3559 20.5404 53.7859 21.1042 53.0503 21.5088C52.327 21.9133 51.4751 22.1156 50.4943 22.1156C49.5135 22.1156 48.6554 21.9133 47.9199 21.5088C47.1844 21.1042 46.6143 20.5404 46.2098 19.8171C45.8052 19.0938 45.603 18.2479 45.603 17.2794ZM48.4532 17.261C48.4532 17.7269 48.539 18.1376 48.7106 18.4931C48.8822 18.8364 49.1213 19.106 49.4277 19.3022C49.7343 19.486 50.0898 19.578 50.4943 19.578C50.8989 19.578 51.2543 19.486 51.5609 19.3022C51.8673 19.106 52.1002 18.8364 52.2596 18.4931C52.4313 18.1376 52.5171 17.7269 52.5171 17.261C52.5171 16.7952 52.4313 16.3906 52.2596 16.0474C52.1002 15.7041 51.8673 15.4406 51.5609 15.2567C51.2543 15.0605 50.8989 14.9624 50.4943 14.9624C50.0898 14.9624 49.7343 15.0605 49.4277 15.2567C49.1213 15.4406 48.8822 15.7041 48.7106 16.0474C48.539 16.3906 48.4532 16.7952 48.4532 17.261ZM56.0068 17.1324C56.0068 16.1884 56.1967 15.3609 56.5768 14.6498C56.9568 13.9388 57.4778 13.3872 58.1398 12.9948C58.8018 12.5903 59.5619 12.388 60.42 12.388C61.1433 12.388 61.7807 12.5351 62.3324 12.8294C62.8964 13.1236 63.2763 13.5098 63.4725 13.9879L63.1967 14.1718L63.4174 12.7007H65.9733V21.3065C65.9733 22.3853 65.7649 23.317 65.3481 24.1016C64.9313 24.8984 64.3368 25.5114 63.5644 25.9404C62.8044 26.3695 61.8972 26.5841 60.8429 26.5841C59.9603 26.5841 59.1635 26.4063 58.4524 26.0508C57.7536 25.7075 57.1836 25.2172 56.7423 24.5797C56.3132 23.9422 56.0558 23.2067 55.97 22.373H58.8386C58.8631 22.9002 59.0715 23.3047 59.4638 23.5868C59.8683 23.8687 60.3832 24.0097 61.0084 24.0097C61.7072 24.0097 62.2466 23.8135 62.6266 23.4212C63.0067 23.0412 63.1967 22.5324 63.1967 21.895V19.9457L63.4541 20.1848C63.258 20.663 62.8779 21.0491 62.314 21.3433C61.7501 21.6375 61.1004 21.7847 60.3648 21.7847C59.5189 21.7847 58.765 21.5885 58.103 21.1962C57.4533 20.8039 56.9384 20.2584 56.5583 19.5596C56.1906 18.8609 56.0068 18.0518 56.0068 17.1324ZM58.8753 17.0588C58.8753 17.5001 58.9673 17.8924 59.1512 18.2356C59.3351 18.5789 59.5802 18.8486 59.8868 19.0447C60.1932 19.2286 60.5303 19.3206 60.8981 19.3206C61.3394 19.3206 61.7256 19.2286 62.0566 19.0447C62.3999 18.8486 62.6634 18.5789 62.8473 18.2356C63.0434 17.8924 63.1415 17.5001 63.1415 17.0588C63.1415 16.6052 63.0434 16.219 62.8473 15.9003C62.6511 15.5693 62.3814 15.3118 62.0382 15.128C61.7072 14.9441 61.321 14.8521 60.8797 14.8521C60.5119 14.8521 60.1748 14.9441 59.8683 15.128C59.5619 15.3118 59.3167 15.5693 59.1328 15.9003C58.9611 16.2313 58.8753 16.6174 58.8753 17.0588ZM66.9826 17.2794C66.9826 16.311 67.1849 15.4651 67.5894 14.7418C67.994 14.0062 68.564 13.4362 69.2996 13.0316C70.0351 12.6271 70.8932 12.4248 71.874 12.4248C72.8547 12.4248 73.7066 12.6271 74.43 13.0316C75.1655 13.4362 75.7355 14.0062 76.1401 14.7418C76.5446 15.4651 76.7469 16.311 76.7469 17.2794C76.7469 18.2479 76.5446 19.0938 76.1401 19.8171C75.7355 20.5404 75.1655 21.1042 74.43 21.5088C73.7066 21.9133 72.8547 22.1156 71.874 22.1156C70.8932 22.1156 70.0351 21.9133 69.2996 21.5088C68.564 21.1042 67.994 20.5404 67.5894 19.8171C67.1849 19.0938 66.9826 18.2479 66.9826 17.2794ZM69.8328 17.261C69.8328 17.7269 69.9186 18.1376 70.0902 18.4931C70.2618 18.8364 70.5009 19.106 70.8074 19.3022C71.1139 19.486 71.4694 19.578 71.874 19.578C72.2785 19.578 72.634 19.486 72.9405 19.3022C73.2469 19.106 73.4799 18.8364 73.6393 18.4931C73.8109 18.1376 73.8967 17.7269 73.8967 17.261C73.8967 16.7952 73.8109 16.3906 73.6393 16.0474C73.4799 15.7041 73.2469 15.4406 72.9405 15.2567C72.634 15.0605 72.2785 14.9624 71.874 14.9624C71.4694 14.9624 71.1139 15.0605 70.8074 15.2567C70.5009 15.4406 70.2618 15.7041 70.0902 16.0474C69.9186 16.3906 69.8328 16.7952 69.8328 17.261ZM77.938 21.895V12.7007H80.7882V21.895H77.938ZM79.3723 11.2663C78.9188 11.2663 78.5326 11.1131 78.2138 10.8066C77.9074 10.4879 77.7541 10.1017 77.7541 9.64815C77.7541 9.19459 77.9074 8.81455 78.2138 8.50802C78.5326 8.20158 78.9188 8.04834 79.3723 8.04834C79.8137 8.04834 80.1876 8.20158 80.494 8.50802C80.8127 8.81455 80.9722 9.19459 80.9722 9.64815C80.9722 10.1017 80.8127 10.4879 80.494 10.8066C80.1876 11.1131 79.8137 11.2663 79.3723 11.2663ZM82.6313 26.3083V12.7007H85.2244L85.371 13.8224C85.6287 13.3933 86.0396 13.0501 86.603 12.7926C87.1672 12.5351 87.7743 12.4065 88.4236 12.4065C89.2817 12.4065 90.0295 12.5964 90.667 12.9765C91.3044 13.3565 91.8072 13.902 92.1752 14.6131C92.5423 15.3118 92.7385 16.1577 92.7638 17.1507C92.7882 18.1191 92.6282 18.9835 92.2855 19.7435C91.9419 20.4913 91.4459 21.0797 90.7958 21.5088C90.1457 21.9379 89.3617 22.1524 88.4421 22.1524C87.8047 22.1524 87.2101 22.0421 86.6585 21.8215C86.107 21.6007 85.696 21.3188 85.4265 20.9756V26.3083H82.6313ZM85.4813 17.2978C85.4813 17.7514 85.5731 18.1559 85.7575 18.5115C85.9537 18.8547 86.2173 19.1244 86.5482 19.3206C86.891 19.5045 87.2834 19.5964 87.7247 19.5964C88.1785 19.5964 88.5651 19.4983 88.8834 19.3022C89.2143 19.106 89.4661 18.8364 89.6371 18.4931C89.8215 18.1498 89.9133 17.7514 89.9133 17.2978C89.9133 16.8442 89.8215 16.4458 89.6371 16.1025C89.4661 15.7593 89.2143 15.4896 88.8834 15.2935C88.5651 15.0973 88.1785 14.9992 87.7247 14.9992C87.2834 14.9992 86.891 15.0973 86.5482 15.2935C86.2173 15.4774 85.9537 15.7409 85.7575 16.0842C85.5731 16.4274 85.4813 16.832 85.4813 17.2978ZM93.2489 18.9895H95.8055C95.8055 19.3083 95.9091 19.5596 96.1179 19.7435C96.3385 19.9274 96.6569 20.0193 97.0737 20.0193C97.3188 20.0193 97.5217 19.9887 97.6809 19.9274C97.8527 19.8661 97.9815 19.7803 98.0666 19.67C98.1651 19.5473 98.2139 19.4125 98.2139 19.2654C98.2139 19.106 98.1592 18.9712 98.0489 18.8609C97.9503 18.7505 97.7785 18.6647 97.5335 18.6034L95.9158 18.1804C95.008 17.9353 94.3647 17.5736 93.9849 17.0956C93.6042 16.6174 93.4148 16.0719 93.4148 15.4589C93.4148 14.846 93.568 14.3127 93.8745 13.8592C94.1929 13.3933 94.6223 13.0378 95.1613 12.7926C95.7011 12.5351 96.3074 12.4065 96.9819 12.4065C97.9992 12.4065 98.8329 12.6884 99.483 13.2524C100.145 13.8039 100.494 14.5579 100.531 15.5141H97.9748C97.9874 15.1953 97.8956 14.9441 97.6994 14.7601C97.5032 14.564 97.2455 14.466 96.9272 14.466C96.6451 14.466 96.4118 14.5395 96.2282 14.6866C96.0564 14.8215 95.9705 15.0115 95.9705 15.2567C95.9705 15.4896 96.0564 15.6612 96.2282 15.7716C96.4 15.8696 96.6324 15.9554 96.9272 16.029L98.5634 16.4336C99.3238 16.6174 99.8998 16.9301 100.292 17.3713C100.685 17.8127 100.88 18.3767 100.88 19.0631C100.88 20.0071 100.531 20.7548 99.8324 21.3065C99.1335 21.8582 98.2265 22.134 97.1108 22.134C95.9588 22.134 95.0324 21.846 94.3343 21.2698C93.6472 20.6813 93.2859 19.9212 93.2489 18.9895ZM105.399 22.134C104.32 22.134 103.486 21.7969 102.898 21.1227C102.31 20.4484 102.015 19.5657 102.015 18.4747V12.7007H104.847V17.4449C104.847 18.3031 105 18.8792 105.307 19.1735C105.613 19.4677 106.018 19.6148 106.52 19.6148C107.171 19.6148 107.618 19.4309 107.863 19.0631C108.108 18.6954 108.231 18.1682 108.231 17.4817V12.7007H111.063V21.895H108.397L108.212 20.8652C107.93 21.2452 107.532 21.5517 107.017 21.7847C106.502 22.0176 105.963 22.134 105.399 22.134ZM115.737 21.895H112.887V12.7007H115.535L115.737 14.2821L115.425 13.9511C115.67 13.4852 116.038 13.1113 116.528 12.8294C117.031 12.5351 117.57 12.388 118.147 12.388C119.053 12.388 119.764 12.5903 120.28 12.9948C120.807 13.3994 121.187 13.9327 121.419 14.5947H120.978C121.125 13.9327 121.48 13.3994 122.045 12.9948C122.609 12.5903 123.283 12.388 124.067 12.388C125.256 12.388 126.133 12.7068 126.697 13.3442C127.261 13.9817 127.543 14.8276 127.543 15.8819V21.895H124.785V16.5807C124.785 16.0044 124.643 15.5754 124.361 15.2935C124.092 15.0115 123.731 14.8705 123.277 14.8705C123.007 14.8705 122.749 14.9319 122.504 15.0544C122.259 15.1647 122.056 15.367 121.897 15.6612C121.738 15.9432 121.658 16.3478 121.658 16.8748V21.895H118.863V16.5807C118.863 16.0044 118.728 15.5815 118.459 15.3118C118.189 15.0299 117.827 14.8889 117.373 14.8889C117.104 14.8889 116.84 14.9502 116.583 15.0728C116.338 15.1831 116.136 15.3854 115.976 15.6796C115.817 15.9616 115.737 16.36 115.737 16.8748V21.895Z" fill="#9CA7AB"></path></g><defs><clipPath id="clip0_4306_3516"><rect width="128.842" height="32" fill="white"></rect></clipPath></defs></svg>