<svg xmlns="http://www.w3.org/2000/svg" width="138" height="32" viewBox="0 0 138 32" fill="none"><g clip-path="url(#clip0_4306_3573)"><path d="M39.6292 23.1999H48.7113V20.6138H42.3986V8.53809H39.6292V23.1999Z" fill="#9CA7AB"></path><path d="M54.169 23.5052C55.2687 23.5052 56.236 23.2608 57.0709 22.7721C57.9125 22.2766 58.5676 21.5944 59.036 20.7256C59.5111 19.85 59.7487 18.8419 59.7487 17.7016C59.7487 16.568 59.5145 15.5668 59.0461 14.6979C58.5777 13.8223 57.9227 13.1367 57.081 12.6412C56.2461 12.1457 55.2755 11.8979 54.169 11.8979C53.0829 11.8979 52.1225 12.1423 51.2876 12.6311C50.4527 13.1198 49.7977 13.8019 49.3225 14.6776C48.8473 15.5464 48.6097 16.5544 48.6097 17.7016C48.6097 18.8351 48.8405 19.8398 49.3021 20.7154C49.7705 21.5843 50.4221 22.2664 51.257 22.7619C52.092 23.2575 53.0626 23.5052 54.169 23.5052ZM54.169 20.9191C53.3069 20.9191 52.652 20.6306 52.204 20.0536C51.7627 19.4699 51.5421 18.6859 51.5421 17.7016C51.5421 16.7445 51.7525 15.9707 52.1734 15.3801C52.601 14.7828 53.2662 14.4841 54.169 14.4841C55.0447 14.4841 55.7031 14.776 56.1443 15.3598C56.5923 15.9436 56.8163 16.7241 56.8163 17.7016C56.8163 18.6451 56.5957 19.4189 56.1545 20.0231C55.7201 20.6203 55.0582 20.9191 54.169 20.9191Z" fill="#9CA7AB"></path><path d="M65.2255 23.5052C65.7414 23.5052 66.2165 23.4441 66.651 23.322C67.0922 23.1998 67.4927 23.0267 67.8525 22.8027V23.9125C67.8661 24.3198 67.7608 24.6592 67.5368 24.9307C67.3196 25.209 67.0277 25.416 66.6612 25.5518C66.2946 25.6944 65.9043 25.7656 65.4903 25.7656C65.1033 25.7656 64.7436 25.6807 64.411 25.5111C64.0852 25.3414 63.834 25.0936 63.6575 24.7678L61.0917 26.0099C61.5125 26.7227 62.1133 27.2963 62.8939 27.7307C63.6745 28.1719 64.5332 28.3925 65.4699 28.3925C66.2777 28.3925 67.0277 28.2839 67.7201 28.0667C68.4125 27.8563 68.9962 27.5339 69.4713 27.0994C69.9533 26.665 70.2825 26.1118 70.459 25.4398C70.5201 25.2022 70.5608 24.9612 70.5812 24.7168C70.6083 24.4793 70.6219 24.2247 70.6219 23.9532V12.2034H68.1986V12.8143C67.8253 12.5224 67.401 12.2984 66.9259 12.1423C66.4575 11.9794 65.9383 11.8979 65.3681 11.8979C64.316 11.8979 63.3996 12.1491 62.619 12.6514C61.8384 13.1537 61.2309 13.8427 60.7965 14.7183C60.3688 15.5871 60.155 16.5816 60.155 17.7016C60.155 18.8012 60.3654 19.7888 60.7863 20.6645C61.2139 21.5401 61.8078 22.2325 62.5681 22.7416C63.3283 23.2507 64.2141 23.5052 65.2255 23.5052ZM65.6735 21.0412C65.0762 21.0412 64.5875 20.8919 64.2073 20.5932C63.8273 20.2946 63.5455 19.8941 63.3623 19.3918C63.179 18.8827 63.0873 18.3193 63.0873 17.7016C63.0873 17.0907 63.1824 16.5341 63.3725 16.0318C63.5625 15.5227 63.8544 15.1188 64.2481 14.8201C64.6485 14.5147 65.1577 14.3619 65.7753 14.3619C66.6442 14.3619 67.2653 14.6708 67.6386 15.2885C68.012 15.8994 68.1986 16.7038 68.1986 17.7016C68.1986 18.6994 68.0085 19.5071 67.6285 20.1248C67.2551 20.7358 66.6035 21.0412 65.6735 21.0412Z" fill="#9CA7AB"></path><path d="M77.1999 23.5052C78.2996 23.5052 79.2669 23.2608 80.1017 22.7721C80.9433 22.2766 81.5985 21.5944 82.0665 20.7256C82.5417 19.85 82.7793 18.8419 82.7793 17.7016C82.7793 16.568 82.5457 15.5668 82.0769 14.6979C81.6089 13.8223 80.9537 13.1367 80.1119 12.6412C79.277 12.1457 78.3063 11.8979 77.1999 11.8979C76.1138 11.8979 75.1533 12.1423 74.3185 12.6311C73.4836 13.1198 72.8285 13.8019 72.3533 14.6776C71.8782 15.5464 71.6406 16.5544 71.6406 17.7016C71.6406 18.8351 71.8714 19.8398 72.333 20.7154C72.8013 21.5843 73.453 22.2664 74.2879 22.7619C75.1229 23.2575 76.0935 23.5052 77.1999 23.5052ZM77.1999 20.9191C76.3378 20.9191 75.6828 20.6306 75.2348 20.0536C74.7936 19.4699 74.573 18.6859 74.573 17.7016C74.573 16.7445 74.7834 15.9707 75.2043 15.3801C75.6319 14.7828 76.2971 14.4841 77.1999 14.4841C78.0756 14.4841 78.734 14.776 79.1752 15.3598C79.6232 15.9436 79.8472 16.7241 79.8472 17.7016C79.8472 18.6451 79.6265 19.4189 79.1853 20.0231C78.7509 20.6203 78.0891 20.9191 77.1999 20.9191Z" fill="#9CA7AB"></path><path d="M84 10.6765H86.7696V8.23291H84V10.6765ZM84 23.2002H86.7696V12.2038H84V23.2002Z" fill="#9CA7AB"></path><path d="M88.5801 28.0871H91.3697V22.8027C91.7297 23.0267 92.1265 23.1998 92.5609 23.3219C93.0025 23.4441 93.4809 23.5052 93.9969 23.5052C95.0081 23.5052 95.8945 23.2507 96.6545 22.7416C97.4145 22.2325 98.0049 21.5401 98.4257 20.6645C98.8537 19.7888 99.0673 18.8012 99.0673 17.7016C99.0673 16.5816 98.8505 15.5871 98.4161 14.7183C97.9881 13.8427 97.3841 13.1537 96.6033 12.6514C95.8225 12.1491 94.9065 11.8979 93.8545 11.8979C93.2841 11.8979 92.7617 11.9794 92.2865 12.1423C91.8177 12.2984 91.3969 12.5224 91.0241 12.8143V12.2034H88.5801V28.0871ZM93.5489 21.0412C92.6257 21.0412 91.9745 20.7358 91.5937 20.1248C91.2137 19.5071 91.0241 18.6994 91.0241 17.7016C91.0241 16.7038 91.2105 15.8994 91.5841 15.2885C91.9641 14.6708 92.5849 14.3619 93.4473 14.3619C94.0649 14.3619 94.5705 14.5147 94.9641 14.8201C95.3649 15.1188 95.6601 15.5227 95.8497 16.0318C96.0401 16.5341 96.1353 17.0907 96.1353 17.7016C96.1353 18.3193 96.0433 18.8827 95.8601 19.3918C95.6769 19.8941 95.3953 20.2946 95.0153 20.5932C94.6353 20.8919 94.1465 21.0412 93.5489 21.0412Z" fill="#9CA7AB"></path><path d="M104.085 23.5052C105.523 23.5052 106.65 23.1828 107.465 22.538C108.279 21.8931 108.686 21.0073 108.686 19.8805C108.686 19.0252 108.422 18.3499 107.893 17.8543C107.37 17.3588 106.481 16.9481 105.225 16.6223C104.37 16.4051 103.731 16.2286 103.31 16.0928C102.897 15.9571 102.622 15.8248 102.486 15.6958C102.357 15.5668 102.293 15.4073 102.293 15.2172C102.293 14.8982 102.445 14.6539 102.75 14.4841C103.063 14.3144 103.474 14.2466 103.982 14.2805C105.062 14.3619 105.653 14.8235 105.754 15.6652L108.585 15.1561C108.442 14.1583 107.954 13.3675 107.118 12.7838C106.284 12.1932 105.218 11.8979 103.922 11.8979C102.591 11.8979 101.529 12.2102 100.734 12.8347C99.9408 13.4591 99.5432 14.3008 99.5432 15.3598C99.5432 16.2015 99.8184 16.8667 100.368 17.3554C100.918 17.8374 101.865 18.2514 103.209 18.5976C104.003 18.808 104.586 18.9777 104.96 19.1067C105.34 19.2356 105.585 19.368 105.693 19.5038C105.802 19.6327 105.856 19.8059 105.856 20.0231C105.856 20.3692 105.72 20.6407 105.449 20.8376C105.178 21.0276 104.79 21.1227 104.288 21.1227C103.677 21.1227 103.171 20.9767 102.771 20.6848C102.378 20.393 102.122 19.9892 102.007 19.4732L99.1768 19.9008C99.36 21.048 99.876 21.9372 100.725 22.5685C101.58 23.193 102.7 23.5052 104.085 23.5052Z" fill="#9CA7AB"></path><path d="M113.795 23.5259C114.59 23.5259 115.282 23.3935 115.873 23.1287C116.463 22.864 116.958 22.5111 117.359 22.0699V23.2H119.802V12.2036H117.013V17.7833C117.013 18.4621 116.934 19.0119 116.778 19.4327C116.63 19.8468 116.436 20.1624 116.198 20.3796C115.961 20.5901 115.706 20.7326 115.434 20.8073C115.163 20.8819 114.909 20.9193 114.671 20.9193C114.081 20.9193 113.622 20.7869 113.297 20.5222C112.978 20.2575 112.746 19.9283 112.604 19.5346C112.462 19.1408 112.377 18.7506 112.35 18.3636C112.322 17.9699 112.309 17.6475 112.309 17.3963V12.2036H109.498V18.3739C109.498 18.5571 109.512 18.849 109.539 19.2495C109.566 19.6499 109.645 20.0946 109.774 20.5833C109.902 21.0652 110.116 21.5302 110.415 21.9782C110.721 22.4262 111.145 22.7961 111.688 23.088C112.23 23.3799 112.934 23.5259 113.795 23.5259Z" fill="#9CA7AB"></path><path d="M121.406 23.2001H124.196V16.5411C124.196 15.9099 124.369 15.3974 124.715 15.0037C125.068 14.6032 125.533 14.403 126.11 14.403C126.714 14.403 127.186 14.6066 127.526 15.0139C127.871 15.4144 128.045 15.9778 128.045 16.7041V23.2001H130.814V16.5411C130.814 15.9099 130.987 15.3974 131.334 15.0037C131.686 14.6032 132.151 14.403 132.728 14.403C133.333 14.403 133.804 14.6066 134.143 15.0139C134.49 15.4144 134.663 15.9778 134.663 16.7041V23.2001H137.432V15.971C137.432 14.7695 137.11 13.7989 136.465 13.059C135.827 12.3123 134.88 11.939 133.624 11.939C132.918 11.939 132.27 12.0917 131.679 12.3971C131.089 12.7026 130.618 13.1201 130.264 13.6495C129.979 13.1337 129.572 12.7196 129.042 12.4074C128.513 12.0951 127.854 11.939 127.067 11.939C126.402 11.939 125.791 12.0714 125.234 12.3361C124.678 12.594 124.216 12.9504 123.85 13.4051V12.2037H121.406V23.2001Z" fill="#9CA7AB"></path><path d="M16.4 0C7.56346 0 0.400024 7.16344 0.400024 16C9.23658 16 16.4 8.83656 16.4 0Z" fill="#DEE0E3"></path><path d="M16.4 32C25.2366 32 32.4 24.8366 32.4 16C23.5635 16 16.4 23.1634 16.4 32Z" fill="#DEE0E3"></path><path d="M16.4 0C25.2366 0 32.4 7.16344 32.4 16C23.5635 16 16.4 8.83656 16.4 0Z" fill="#9CA7AB"></path><path d="M16.4 32C7.56346 32 0.400024 24.8366 0.400024 16C9.23658 16 16.4 23.1634 16.4 32Z" fill="#9CA7AB"></path></g><defs><clipPath id="clip0_4306_3573"><rect width="137.6" height="32" fill="white" transform="translate(0.400024)"></rect></clipPath></defs></svg>